<mxfile host="app.diagrams.net" modified="2023-02-08T22:16:11.557Z" agent="5.0 (Windows NT 10.0; Win64; x64) AppleWebKit/537.36 (KHTML, like Gecko) Chrome/109.0.0.0 Safari/537.36" etag="U9v6B_jcZZihIOatjP9M" version="20.8.18" type="github">
  <diagram name="General Flow" id="74b105a0-9070-1c63-61bc-23e55f88626e">
    <mxGraphModel dx="737" dy="351" grid="1" gridSize="10" guides="1" tooltips="1" connect="1" arrows="1" fold="1" page="1" pageScale="1.5" pageWidth="1169" pageHeight="826" background="none" math="0" shadow="0">
      <root>
        <mxCell id="0" style=";html=1;" />
        <mxCell id="1" style=";html=1;" parent="0" />
        <mxCell id="10b056a9c633e61c-30" value="Title" style="text;strokeColor=none;fillColor=none;html=1;fontSize=24;fontStyle=1;verticalAlign=middle;align=center;" parent="1" vertex="1">
          <mxGeometry x="80" y="40" width="1590" height="40" as="geometry" />
        </mxCell>
        <mxCell id="_7sG-E6vDP2OpQRu1kbX-9" style="edgeStyle=none;rounded=0;orthogonalLoop=1;jettySize=auto;html=1;entryX=0;entryY=0.5;entryDx=0;entryDy=0;" edge="1" parent="1" source="_7sG-E6vDP2OpQRu1kbX-1" target="_7sG-E6vDP2OpQRu1kbX-6">
          <mxGeometry relative="1" as="geometry" />
        </mxCell>
        <mxCell id="_7sG-E6vDP2OpQRu1kbX-1" value="Requester" style="strokeWidth=2;dashed=0;align=center;fontSize=8;shape=rect;verticalLabelPosition=bottom;verticalAlign=top;fillColor=#c0f5a9;" vertex="1" parent="1">
          <mxGeometry x="160" y="430" width="150" height="90" as="geometry" />
        </mxCell>
        <mxCell id="_7sG-E6vDP2OpQRu1kbX-2" value="" style="strokeWidth=1;dashed=0;align=center;fontSize=8;shape=rect;" vertex="1" parent="_7sG-E6vDP2OpQRu1kbX-1">
          <mxGeometry x="85" y="25" width="40" height="40" as="geometry" />
        </mxCell>
        <mxCell id="_7sG-E6vDP2OpQRu1kbX-3" value="Provider" style="strokeWidth=2;dashed=0;align=center;fontSize=8;shape=rect;verticalLabelPosition=bottom;verticalAlign=top;fillColor=#c0f5a9;" vertex="1" parent="1">
          <mxGeometry x="160" y="580" width="150" height="90" as="geometry" />
        </mxCell>
        <mxCell id="_7sG-E6vDP2OpQRu1kbX-4" value="" style="strokeWidth=1;dashed=0;align=center;fontSize=8;shape=rect;" vertex="1" parent="_7sG-E6vDP2OpQRu1kbX-3">
          <mxGeometry x="85" y="25" width="40" height="40" as="geometry" />
        </mxCell>
        <mxCell id="_7sG-E6vDP2OpQRu1kbX-8" style="edgeStyle=none;rounded=0;orthogonalLoop=1;jettySize=auto;html=1;entryX=0;entryY=0.5;entryDx=0;entryDy=0;entryPerimeter=0;" edge="1" parent="1" source="_7sG-E6vDP2OpQRu1kbX-6" target="_7sG-E6vDP2OpQRu1kbX-7">
          <mxGeometry relative="1" as="geometry" />
        </mxCell>
        <mxCell id="_7sG-E6vDP2OpQRu1kbX-11" style="edgeStyle=elbowEdgeStyle;rounded=0;orthogonalLoop=1;jettySize=auto;html=1;entryX=1;entryY=0.5;entryDx=0;entryDy=0;elbow=vertical;exitX=0.25;exitY=1;exitDx=0;exitDy=0;" edge="1" parent="1" source="_7sG-E6vDP2OpQRu1kbX-6" target="_7sG-E6vDP2OpQRu1kbX-3">
          <mxGeometry relative="1" as="geometry">
            <mxPoint x="450" y="530" as="sourcePoint" />
            <Array as="points">
              <mxPoint x="380" y="625" />
            </Array>
          </mxGeometry>
        </mxCell>
        <mxCell id="_7sG-E6vDP2OpQRu1kbX-6" value="Server" style="strokeWidth=2;dashed=0;align=center;fontSize=8;shape=rect;fillColor=#c0f5a9;verticalLabelPosition=bottom;verticalAlign=top;" vertex="1" parent="1">
          <mxGeometry x="410" y="430" width="120" height="90" as="geometry" />
        </mxCell>
        <mxCell id="_7sG-E6vDP2OpQRu1kbX-7" value="DB" style="strokeWidth=2;outlineConnect=0;dashed=0;align=center;fontSize=8;verticalLabelPosition=bottom;verticalAlign=top;shape=mxgraph.eip.message_store;fillColor=#c0f5a9" vertex="1" parent="1">
          <mxGeometry x="600" y="430" width="150" height="90" as="geometry" />
        </mxCell>
        <mxCell id="_7sG-E6vDP2OpQRu1kbX-13" value="Requester" style="strokeWidth=2;dashed=0;align=center;fontSize=8;shape=rect;verticalLabelPosition=bottom;verticalAlign=top;fillColor=#c0f5a9;" vertex="1" parent="1">
          <mxGeometry x="160" y="740" width="150" height="90" as="geometry" />
        </mxCell>
        <mxCell id="_7sG-E6vDP2OpQRu1kbX-14" value="" style="strokeWidth=1;dashed=0;align=center;fontSize=8;shape=rect;" vertex="1" parent="_7sG-E6vDP2OpQRu1kbX-13">
          <mxGeometry x="85" y="25" width="40" height="40" as="geometry" />
        </mxCell>
        <mxCell id="_7sG-E6vDP2OpQRu1kbX-23" style="edgeStyle=elbowEdgeStyle;rounded=0;orthogonalLoop=1;jettySize=auto;elbow=vertical;html=1;entryX=0.25;entryY=1;entryDx=0;entryDy=0;" edge="1" parent="1" source="_7sG-E6vDP2OpQRu1kbX-15" target="_7sG-E6vDP2OpQRu1kbX-19">
          <mxGeometry relative="1" as="geometry">
            <mxPoint x="480" y="930" as="targetPoint" />
            <Array as="points">
              <mxPoint x="450" y="920" />
            </Array>
          </mxGeometry>
        </mxCell>
        <mxCell id="_7sG-E6vDP2OpQRu1kbX-15" value="Provider" style="strokeWidth=2;dashed=0;align=center;fontSize=8;shape=rect;verticalLabelPosition=bottom;verticalAlign=top;fillColor=#c0f5a9;" vertex="1" parent="1">
          <mxGeometry x="160" y="890" width="150" height="90" as="geometry" />
        </mxCell>
        <mxCell id="_7sG-E6vDP2OpQRu1kbX-16" value="" style="strokeWidth=1;dashed=0;align=center;fontSize=8;shape=rect;" vertex="1" parent="_7sG-E6vDP2OpQRu1kbX-15">
          <mxGeometry x="85" y="25" width="40" height="40" as="geometry" />
        </mxCell>
        <mxCell id="_7sG-E6vDP2OpQRu1kbX-24" style="edgeStyle=elbowEdgeStyle;rounded=0;orthogonalLoop=1;jettySize=auto;elbow=vertical;html=1;entryX=1;entryY=0.5;entryDx=0;entryDy=0;" edge="1" parent="1" source="_7sG-E6vDP2OpQRu1kbX-19" target="_7sG-E6vDP2OpQRu1kbX-13">
          <mxGeometry relative="1" as="geometry" />
        </mxCell>
        <mxCell id="_7sG-E6vDP2OpQRu1kbX-19" value="Server" style="strokeWidth=2;dashed=0;align=center;fontSize=8;shape=rect;fillColor=#c0f5a9;verticalLabelPosition=bottom;verticalAlign=top;" vertex="1" parent="1">
          <mxGeometry x="410" y="740" width="120" height="90" as="geometry" />
        </mxCell>
        <mxCell id="_7sG-E6vDP2OpQRu1kbX-25" style="edgeStyle=elbowEdgeStyle;rounded=0;orthogonalLoop=1;jettySize=auto;elbow=vertical;html=1;entryX=1;entryY=0.5;entryDx=0;entryDy=0;" edge="1" parent="1" source="_7sG-E6vDP2OpQRu1kbX-20" target="_7sG-E6vDP2OpQRu1kbX-19">
          <mxGeometry relative="1" as="geometry" />
        </mxCell>
        <mxCell id="_7sG-E6vDP2OpQRu1kbX-20" value="DB" style="strokeWidth=2;outlineConnect=0;dashed=0;align=center;fontSize=8;verticalLabelPosition=bottom;verticalAlign=top;shape=mxgraph.eip.message_store;fillColor=#c0f5a9" vertex="1" parent="1">
          <mxGeometry x="600" y="740" width="150" height="90" as="geometry" />
        </mxCell>
      </root>
    </mxGraphModel>
  </diagram>
</mxfile>
